# xmcd CD database file
#
# Track frame offsets:
#	150
#	34098
#	94165
#	143846
#
# Disc length: 2763 seconds
#
# Revision: 0
# Processed by: cddbd v1.4PL0 Copyright (c) Steve Scherf et al.
# Submitted via: CDex 1.51
#
DISCID=2e0ac904
DTITLE=Inishkea - Rhythm of the Sea
DYEAR=2001
DGENRE=New Age
TTITLE0=Gentle Tides
TTITLE1=New Tidal Breeze
TTITLE2=The Living Reef
TTITLE3=Seascape
EXTD=YEAR: 2001
EXTT0=
EXTT1=
EXTT2=
EXTT3=
PLAYORDER=
